<svg width="220.38251953125px" height="50.2125244140625px" xmlns="http://www.w3.org/2000/svg" viewBox="155.308740234375 50.39373779296875 180.38251953125 50.2125244140625" style="background: none;" preserveAspectRatio="xMidYMid"><defs><filter id="editing-metal-beveled"><feGaussianBlur stdDeviation="4" in="SourceAlpha" result="blur"></feGaussianBlur><feSpecularLighting surfaceScale="5" specularConstant="0.8" specularExponent="7.5" lighting-color="#ff0000" in="blur" result="specular"><fePointLight x="-250" y="-50" z="300"></fePointLight></feSpecularLighting><feComposite operator="in" in="specular" in2="SourceAlpha" result="comp"></feComposite><feComposite in="SourceGraphic" in2="comp" operator="arithmetic" k1="0" k2="1" k3="1" k4="0"></feComposite></filter></defs><g filter="url(#editing-metal-beveled)"><g transform="translate(145.17186880111694, 93.42499923706055)"><path d="M28.60-13.50L28.60-13.50L28.60-13.50Q26.10-13.50 23.95-13.90L23.95-13.90L23.95-13.90Q24.65-11.70 26.90-3.95L26.90-3.95L26.90-3.95Q27.60-1.70 29.10 0.60L29.10 0.60L29.10 0.60Q31.15 3.55 32.90 3.55L32.90 3.55L32.90 3.55Q35 3.55 36.40-0.70L36.40-0.70L36.40-0.70Q36.65-1.70 36.93-1.70L36.93-1.70L36.93-1.70Q37.20-1.70 37.33-1.13L37.33-1.13L37.33-1.13Q37.45-0.55 37.45-0.35L37.45-0.35L37.45-0.35Q37.45 0.90 36.05 2.85L36.05 2.85L36.05 2.85Q34.20 5.60 32 5.60L32 5.60L32 5.60Q29.80 5.60 27.95 3.40L27.95 3.40L27.95 3.40Q26.10 1.20 24.33-4.63L24.33-4.63L24.33-4.63Q22.55-10.45 22.55-12.05L22.55-12.05L22.55-12.05Q22.55-12.30 22.60-12.45L22.60-12.45L22.60-12.45Q16.60-4.50 14-1.95L14-1.95L14-1.95Q8.20 3.70 2.15 3.70L2.15 3.70L2.15 3.70Q-2.10 3.70-2.10 0.50L-2.10 0.50L-2.10 0.50Q-2.10-1.10-1.10-3.03L-1.10-3.03L-1.10-3.03Q-0.10-4.95 1.35-6.40L1.35-6.40L1.35-6.40Q2.80-7.85 3.90-7.85L3.90-7.85L3.90-7.85Q4.10-7.85 4.10-7.75L4.10-7.75L4.10-7.75Q4.10-7.50 2.85-6.50L2.85-6.50L2.85-6.50Q1.60-5.50 0.45-3.68L0.45-3.68L0.45-3.68Q-0.70-1.85-0.70-0.35L-0.70-0.35L-0.70-0.35Q-0.70 2.30 2.85 2.30L2.85 2.30L2.85 2.30Q9.50 2.30 21.15-13.30L21.15-13.30L21.15-13.30Q21.80-14.15 22.25-14.50L22.25-14.50L21.45-14.80L21.45-14.80Q20.80-14.55 20.40-14.55L20.40-14.55L20.40-14.55Q19.35-14.55 19.35-15.40L19.35-15.40L19.35-15.40Q19.35-16.55 20.90-16.90L20.90-16.90L20.90-16.90Q21.10-16.95 21.25-16.95L21.25-16.95L21.25-16.95Q22.15-16.95 23.35-16.05L23.35-16.05L23.35-16.05Q27.75-20.95 27.85-21.05L27.85-21.05L27.85-21.05Q31.50-24.80 32.77-24.80L32.77-24.80L32.77-24.80Q34.05-24.80 34.05-23.70L34.05-23.70L34.05-23.70Q34.05-23.20 33.83-22.75L33.83-22.75L33.83-22.75Q33.60-22.30 33.30-22.30L33.30-22.30L33.30-22.30Q33-22.20 33-22.60L33-22.60L33-22.60Q33-22.80 33.30-23.20L33.30-23.20L33.30-23.20Q33.35-23.90 32.85-23.90L32.85-23.90L32.85-23.90Q31.25-23.90 25.10-15.40L25.10-15.40L25.10-15.40Q26.60-15.30 27.60-15.30L27.60-15.30L27.60-15.30Q39.20-15.30 42.10-21.30L42.10-21.30L42.10-21.30Q42.70-22.60 42.70-23.70L42.70-23.70L42.70-23.70Q42.70-25.90 40.70-27.50L40.70-27.50L40.70-27.50Q37.50-30.10 30.30-30.10L30.30-30.10L30.30-30.10Q23.10-30.10 15.60-26.45L15.60-26.45L15.60-26.45Q6.50-22 6.50-16L6.50-16L6.50-16Q6.50-14.05 8.95-14.05L8.95-14.05L8.95-14.05Q11.40-14.05 14.15-15.85L14.15-15.85L14.15-15.85Q16.90-17.65 17.85-19.40L17.85-19.40L17.85-19.40Q18.20-20.05 18.53-20.05L18.53-20.05L18.53-20.05Q18.85-20.05 18.70-19.65L18.70-19.65L18.70-19.65Q17.75-16.85 14.48-14.88L14.48-14.88L14.48-14.88Q11.20-12.90 7.65-12.90L7.65-12.90L7.65-12.90Q4.10-12.90 4.10-15.15L4.10-15.15L4.10-15.15Q4.10-15.30 4.10-15.50L4.10-15.50L4.10-15.50Q4.85-22.05 12.13-26.63L12.13-26.63L12.13-26.63Q19.40-31.20 29.65-31.20L29.65-31.20L29.65-31.20Q39.20-31.20 43.20-27.90L43.20-27.90L43.20-27.90Q45.60-25.90 45.60-23.20L45.60-23.20L45.60-23.20Q45.60-22.05 45.05-20.70L45.05-20.70L45.05-20.70Q43.50-17.05 38.70-15.28L38.70-15.28L38.70-15.28Q33.90-13.50 28.60-13.50ZM54.20-14.95L54.20-14.95L54.90-15.10L54.90-15.10Q55.45-15.10 55.95-14.65L55.95-14.65L55.95-14.65Q56.45-14.20 56.45-13.95L56.45-13.95L56.45-13.95Q56.45-13.70 53.35-9.13L53.35-9.13L53.35-9.13Q50.25-4.55 50.25-2.75L50.25-2.75L50.25-2.75Q50.25-2.60 50.30-2.45L50.30-2.45L50.30-2.45Q50.55-1.30 51.40-1.30L51.40-1.30L51.40-1.30Q54-1.30 60.90-9.90L60.90-9.90L60.90-9.90Q61.05-10.10 61.25-10.10L61.25-10.10L61.25-10.10Q61.45-10.10 61.45-9.73L61.45-9.73L61.45-9.73Q61.45-9.35 61-8.75L61-8.75L61-8.75Q54.60-0.20 51.25-0.20L51.25-0.20L51.25-0.20Q50.80-0.20 50.40-0.35L50.40-0.35L50.40-0.35Q48.20-1.20 48.20-3.65L48.20-3.65L48.20-3.65Q48.20-4.50 48.40-5.35L48.40-5.35L45.30-2.35L45.30-2.35Q42.35 0.25 41.02 0.25L41.02 0.25L41.02 0.25Q39.70 0.25 38.50-0.60L38.50-0.60L38.50-0.60Q37.15-1.60 37.15-3.25L37.15-3.25L37.15-3.25Q37.15-6.90 42.25-11.98L42.25-11.98L42.25-11.98Q47.35-17.05 51.60-17.05L51.60-17.05L51.60-17.05Q53.25-17.05 53.80-15.90L53.80-15.90L53.80-15.90Q53.95-15.50 54.05-15.23L54.05-15.23L54.05-15.23Q54.15-14.95 54.20-14.95ZM39.25-2.65L39.25-2.65L39.25-2.65Q39.25-0.85 40.50-0.85L40.50-0.85L40.50-0.85Q43.40-0.85 48.40-7.20L48.40-7.20L53.70-14.50L53.70-14.50Q53.30-15.20 52.40-15.20L52.40-15.20L52.40-15.20Q49.35-15.20 44.30-10.48L44.30-10.48L44.30-10.48Q39.25-5.75 39.25-2.65ZM70.05-0.20L70.05-0.20L70.05-0.20Q67.10-0.20 67.10-3.65L67.10-3.65L67.10-3.65Q67.10-5.60 68.48-7.98L68.48-7.98L68.48-7.98Q69.85-10.35 71.85-13.55L71.85-13.55L71.85-13.55Q65.45-10.35 60.25-4.10L60.25-4.10L60.25-4.10Q57.35 0.25 56.85 0.25L56.85 0.25L56.85 0.25Q55.40 0.25 55.40-0.60L55.40-0.60L55.40-0.60Q55.40-1.05 56-2.20L56-2.20L56-2.20Q60.85-10.85 63.35-14.85L63.35-14.85L63.35-14.85Q69.30-24.40 71.75-25.20L71.75-25.20L71.75-25.20Q71.85-25.25 71.95-25.25L71.95-25.25L71.95-25.25Q72.60-25.25 72.85-24.20L72.85-24.20L72.85-24.20Q72.70-23.15 67.65-16.60L67.65-16.60L67.65-16.60Q62.40-9.95 61.70-7.90L61.70-7.90L61.70-7.90Q63.55-9.25 68.15-12.45L68.15-12.45L68.15-12.45Q73.10-15.90 74.70-15.90L74.70-15.90L74.70-15.90Q76.30-15.90 76.30-14.65L76.30-14.65L76.30-14.65Q76.30-14.45 76.28-14.38L76.28-14.38L76.28-14.38Q76.25-14.30 72.80-9.65L72.80-9.65L72.80-9.65Q69.35-5 69.35-2.80L69.35-2.80L69.35-2.80Q69.35-1.65 70.20-1.65L70.20-1.65L70.20-1.65Q72.90-1.75 78.30-8.15L78.30-8.15L78.30-8.15Q78.75-8.60 78.98-8.60L78.98-8.60L78.98-8.60Q79.20-8.60 79.20-8.30L79.20-8.30L79.20-8.30Q79.20-7.30 74.25-2.90L74.25-2.90L74.25-2.90Q71.15-0.20 70.05-0.20ZM91 0.30L91 0.30L91 0.30Q90.75 0.35 89.92 0.35L89.92 0.35L89.92 0.35Q89.10 0.35 88.28-0.30L88.28-0.30L88.28-0.30Q87.45-0.95 87.45-1.98L87.45-1.98L87.45-1.98Q87.45-3 87.83-4.25L87.83-4.25L87.83-4.25Q88.20-5.50 88.35-6.15L88.35-6.15L88.35-6.15Q82.60 0.55 79.35 0.55L79.35 0.55L79.35 0.55Q77.30 0.55 77.10-2L77.10-2L77.10-2Q77.10-2.20 77.10-2.35L77.10-2.35L77.10-2.35Q77.10-4.50 79.70-8.15L79.70-8.15L79.70-8.15Q78.25-6.85 76.75-5.15L76.75-5.15L76.75-5.15Q76.55-4.95 76.25-4.95L76.25-4.95L76.25-4.95Q76.05-4.95 76.05-5.20L76.05-5.20L76.05-5.20Q76.05-5.45 76.50-6.05L76.50-6.05L83.40-14.15L83.40-14.15Q84.70-15.65 86.05-15.65L86.05-15.65L86.05-15.65Q87.40-15.65 87.40-14.75L87.40-14.75L87.40-14.75Q87.40-14.40 87.10-14.10L87.10-14.10L87.10-14.10Q85.10-12.25 82.08-7.95L82.08-7.95L82.08-7.95Q79.05-3.65 79.05-1.60L79.05-1.60L79.05-1.60Q79.05-0.70 79.65-0.70L79.65-0.70L79.65-0.70Q81.75-0.70 85.75-4.85L85.75-4.85L85.75-4.85Q87.15-6.25 90.95-11.03L90.95-11.03L90.95-11.03Q94.75-15.80 95.95-15.80L95.95-15.80L95.95-15.80Q97.75-15.80 97.75-14.40L97.75-14.40L97.75-14.40Q97.75-13.90 95.65-11.50L95.65-11.50L95.65-11.50Q92.80-8.05 91.30-5.88L91.30-5.88L91.30-5.88Q89.80-3.70 89.80-2.35L89.80-2.35L89.80-2.35Q89.80-1 90.55-1L90.55-1L90.55-1Q90.90-1 91.35-1.20L91.35-1.20L91.35-1.20Q94.80-2.70 99.60-8.20L99.60-8.20L99.60-8.20Q99.90-8.55 100.20-8.55L100.20-8.55L100.20-8.55Q100.50-8.55 100.50-8.22L100.50-8.22L100.50-8.22Q100.50-7.90 100.15-7.50L100.15-7.50L100.15-7.50Q98-5 95.10-2.48L95.10-2.48L95.10-2.48Q92.20 0.05 91 0.30ZM100.20-2.50L100.20-2.50L100.20-2.50Q100.20-1 101.85-1L101.85-1L101.85-1Q103.50-1 106.10-2.75L106.10-2.75L106.10-2.75Q108.70-4.50 111.15-7.50L111.15-7.50L111.15-7.50Q111.75-8.30 112.10-8.30L112.10-8.30L112.10-8.30Q112.45-8.30 112.45-8L112.45-8L112.45-8Q112.45-7.70 110.40-5.40L110.40-5.40L110.40-5.40Q105.40 0.10 102.05 0.10L102.05 0.10L102.05 0.10Q100.40 0.10 99.25-0.68L99.25-0.68L99.25-0.68Q98.10-1.45 98.10-3.08L98.10-3.08L98.10-3.08Q98.10-4.70 98.95-6.85L98.95-6.85L98.95-6.85Q100.40-10.25 103.60-15.40L103.60-15.40L103.60-15.40Q109.45-24.90 111.90-24.90L111.90-24.90L111.90-24.90Q112.40-24.90 112.92-24.53L112.92-24.53L112.92-24.53Q113.45-24.15 113.50-23.70L113.50-23.70L113.50-23.70Q112.35-22.15 109.08-17.75L109.08-17.75L109.08-17.75Q105.80-13.35 104.55-11.43L104.55-11.43L104.55-11.43Q103.30-9.50 102.67-8.55L102.67-8.55L102.67-8.55Q102.05-7.60 101.75-7.08L101.75-7.08L101.75-7.08Q101.45-6.55 101.05-5.70L101.05-5.70L101.05-5.70Q100.20-4 100.20-2.50ZM149.95-21.40L149.95-21.40L149.95-21.40Q148.10-20.65 146.78-20.65L146.78-20.65L146.78-20.65Q145.45-20.65 145.45-21.20L145.45-21.20L145.45-21.20Q145.45-21.55 146.93-21.60L146.93-21.60L146.93-21.60Q148.40-21.65 149.05-21.95L149.05-21.95L149.05-21.95Q150.95-22.95 150.95-24.90L150.95-24.90L150.95-24.90Q150.95-25.90 150.40-27L150.40-27L150.40-27Q148.80-29.85 142.65-29.85L142.65-29.85L142.65-29.85Q139.10-29.85 135.55-28.78L135.55-28.78L135.55-28.78Q132-27.70 129.60-25.48L129.60-25.48L129.60-25.48Q127.20-23.25 127.20-21.35L127.20-21.35L127.20-21.35Q127.20-18.45 132.95-17.10L132.95-17.10L138.85-16L138.85-16Q142.40-15.35 144.15-14.20L144.15-14.20L144.15-14.20Q146.45-12.80 146.45-10.20L146.45-10.20L146.45-10.20Q146.45-9.15 146.10-7.95L146.10-7.95L146.10-7.95Q144.50-2.55 137.85 0.30L137.85 0.30L137.85 0.30Q132.30 2.75 124.75 2.75L124.75 2.75L124.75 2.75Q122.60 2.75 121 2.55L121 2.55L121 2.55Q122.60 3.45 125.20 4.10L125.20 4.10L125.20 4.10Q125.40 4.15 125.40 4.30L125.40 4.30L125.40 4.30Q125.40 4.75 124.35 4.75L124.35 4.75L124.35 4.75Q122.30 4.75 119.25 2.30L119.25 2.30L119.25 2.30Q115.10 1.65 113.05 0L113.05 0L113.05 0Q111.75-1.05 110.65-3.10L110.65-3.10L110.65-3.10Q109.55-5.15 109.55-6.80L109.55-6.80L109.55-6.80Q109.55-8.45 110.20-9.55L110.20-9.55L110.20-9.55Q111.70-12.20 114-12.20L114-12.20L114-12.20Q115.75-12.20 116.05-9.25L116.05-9.25L116.05-9.25Q116.75-3.55 117-2.75L117-2.75L117-2.75Q117.75-0.30 119.55 1.40L119.55 1.40L119.55 1.40Q121.65 1.85 124.10 1.85L124.10 1.85L124.10 1.85Q129.50 1.85 134.70-0.30L134.70-0.30L134.70-0.30Q139.90-2.45 142.20-6.40L142.20-6.40L142.20-6.40Q143.15-7.95 143.15-9.15L143.15-9.15L143.15-9.15Q143.15-11.50 139-12.80L139-12.80L130.20-14.80L130.20-14.80Q127.50-15.45 125.88-16.95L125.88-16.95L125.88-16.95Q124.25-18.45 124.25-20.40L124.25-20.40L124.25-20.40Q124.25-23.40 128-26.40L128-26.40L128-26.40Q130.85-28.70 134.98-29.98L134.98-29.98L134.98-29.98Q139.10-31.25 143.08-31.25L143.08-31.25L143.08-31.25Q147.05-31.25 149.65-30.10L149.65-30.10L149.65-30.10Q153-28.55 153-25.58L153-25.58L153-25.58Q153-22.60 149.95-21.40ZM117.75 0.90L117.75 0.90L117.75 0.90Q114.85-2.30 114.05-7.85L114.05-7.85L114.05-7.85Q113.60-11 113.20-11L113.20-11L113.20-11Q112.80-11 112.45-10.78L112.45-10.78L112.45-10.78Q112.10-10.55 111.75-9.80L111.75-9.80L111.75-9.80Q111.40-9.05 111.40-7.85L111.40-7.85L111.40-7.85Q111.40-4 114.10-1.25L114.10-1.25L114.10-1.25Q115.45 0.15 117.75 0.90ZM159.65-0.20L159.65-0.20L159.65-0.20Q156.70-0.20 156.70-3.65L156.70-3.65L156.70-3.65Q156.70-5.60 158.08-7.98L158.08-7.98L158.08-7.98Q159.45-10.35 161.45-13.55L161.45-13.55L161.45-13.55Q155.05-10.35 149.85-4.10L149.85-4.10L149.85-4.10Q146.95 0.25 146.45 0.25L146.45 0.25L146.45 0.25Q145 0.25 145-0.60L145-0.60L145-0.60Q145-1.05 145.60-2.20L145.60-2.20L145.60-2.20Q150.45-10.85 152.95-14.85L152.95-14.85L152.95-14.85Q158.90-24.40 161.35-25.20L161.35-25.20L161.35-25.20Q161.45-25.25 161.55-25.25L161.55-25.25L161.55-25.25Q162.20-25.25 162.45-24.20L162.45-24.20L162.45-24.20Q162.30-23.15 157.25-16.60L157.25-16.60L157.25-16.60Q152-9.95 151.30-7.90L151.30-7.90L151.30-7.90Q153.15-9.25 157.75-12.45L157.75-12.45L157.75-12.45Q162.70-15.90 164.30-15.90L164.30-15.90L164.30-15.90Q165.90-15.90 165.90-14.65L165.90-14.65L165.90-14.65Q165.90-14.45 165.88-14.38L165.88-14.38L165.88-14.38Q165.85-14.30 162.40-9.65L162.40-9.65L162.40-9.65Q158.95-5 158.95-2.80L158.95-2.80L158.95-2.80Q158.95-1.65 159.80-1.65L159.80-1.65L159.80-1.65Q162.50-1.75 167.90-8.15L167.90-8.15L167.90-8.15Q168.35-8.60 168.58-8.60L168.58-8.60L168.58-8.60Q168.80-8.60 168.80-8.30L168.80-8.30L168.80-8.30Q168.80-7.30 163.85-2.90L163.85-2.90L163.85-2.90Q160.75-0.20 159.65-0.20ZM183.20-14.95L183.20-14.95L183.90-15.10L183.90-15.10Q184.45-15.10 184.95-14.65L184.95-14.65L184.95-14.65Q185.45-14.20 185.45-13.95L185.45-13.95L185.45-13.95Q185.45-13.70 182.35-9.13L182.35-9.13L182.35-9.13Q179.25-4.55 179.25-2.75L179.25-2.75L179.25-2.75Q179.25-2.60 179.30-2.45L179.30-2.45L179.30-2.45Q179.55-1.30 180.40-1.30L180.40-1.30L180.40-1.30Q183.00-1.30 189.90-9.90L189.90-9.90L189.90-9.90Q190.05-10.10 190.25-10.10L190.25-10.10L190.25-10.10Q190.45-10.10 190.45-9.73L190.45-9.73L190.45-9.73Q190.45-9.35 190.00-8.75L190.00-8.75L190.00-8.75Q183.60-0.20 180.25-0.20L180.25-0.20L180.25-0.20Q179.80-0.20 179.40-0.35L179.40-0.35L179.40-0.35Q177.20-1.20 177.20-3.65L177.20-3.65L177.20-3.65Q177.20-4.50 177.40-5.35L177.40-5.35L174.30-2.35L174.30-2.35Q171.35 0.25 170.03 0.25L170.03 0.25L170.03 0.25Q168.70 0.25 167.50-0.60L167.50-0.60L167.50-0.60Q166.15-1.60 166.15-3.25L166.15-3.25L166.15-3.25Q166.15-6.90 171.25-11.98L171.25-11.98L171.25-11.98Q176.35-17.05 180.60-17.05L180.60-17.05L180.60-17.05Q182.25-17.05 182.80-15.90L182.80-15.90L182.80-15.90Q182.95-15.50 183.05-15.23L183.05-15.23L183.05-15.23Q183.15-14.95 183.20-14.95ZM168.25-2.65L168.25-2.65L168.25-2.65Q168.25-0.85 169.50-0.85L169.50-0.85L169.50-0.85Q172.40-0.85 177.40-7.20L177.40-7.20L182.70-14.50L182.70-14.50Q182.30-15.20 181.40-15.20L181.40-15.20L181.40-15.20Q178.35-15.20 173.30-10.48L173.30-10.48L173.30-10.48Q168.25-5.75 168.25-2.65ZM207.30-15.70L207.30-15.70L207.30-15.70Q207.30-16 207.60-16L207.60-16L207.60-16Q208.50-16 209.00-14.90L209.00-14.90L209.00-14.90Q209.60-13.95 209.60-11.60L209.60-11.60L209.60-11.60Q209.60-8 206.45-4.23L206.45-4.23L206.45-4.23Q203.30-0.45 199.65-0.45L199.65-0.45L199.65-0.45Q197.90-0.45 196.83-2.15L196.83-2.15L196.83-2.15Q195.75-3.85 195.75-5.65L195.75-5.65L195.75-5.65Q195.75-7.45 196.55-10.05L196.55-10.05L196.55-10.05Q195.10-8.60 192.30-5.08L192.30-5.08L192.30-5.08Q189.50-1.55 188.50 0.10L188.50 0.10L188.50 0.10Q188.00 0.10 187.13-0.45L187.13-0.45L187.13-0.45Q186.25-1 186.25-1.50L186.25-1.50L186.25-1.50Q186.25-2.70 189.30-9.43L189.30-9.43L189.30-9.43Q192.35-16.15 193.85-16.15L193.85-16.15L193.85-16.15Q194.40-16.15 194.85-15.63L194.85-15.63L194.85-15.63Q195.30-15.10 195.30-14.83L195.30-14.83L195.30-14.83Q195.30-14.55 192.58-9.68L192.58-9.68L192.58-9.68Q189.85-4.80 189.90-3.80L189.90-3.80L189.90-3.80Q194.65-9.55 194.95-9.90L194.95-9.90L194.95-9.90Q199.80-15.50 201.30-15.50L201.30-15.50L201.30-15.50Q201.85-15.50 202.38-15.03L202.38-15.03L202.38-15.03Q202.90-14.55 202.90-14.18L202.90-14.18L202.90-14.18Q202.90-13.80 201.50-11.95L201.50-11.95L201.50-11.95Q200.10-10.10 199.13-8.33L199.13-8.33L199.13-8.33Q198.15-6.55 198.15-4.75L198.15-4.75L198.15-4.75Q198.15-1.60 200.25-1.60L200.25-1.60L200.90-1.60L200.90-1.60Q203.60-1.60 205.83-5.73L205.83-5.73L205.83-5.73Q208.05-9.85 208.05-12.35L208.05-12.35L208.05-12.35Q208.05-14.35 207.40-15.45L207.40-15.45L207.40-15.45Q207.30-15.55 207.30-15.70Z" fill="#daa520"></path></g></g><style>text {
  font-size: 64px;
  font-family: Arial Black;
  dominant-baseline: central;
  text-anchor: middle;
}</style></svg>